# xmcd
#
# Track frame offsets:
#	150
#	11928
#	28052
#	47035
#	64612
#	87034
#	108813
#	127350
#	149587
#	166389
#	186353
#	203663
#	221591
#	236399
#
# Disc length: 3458 seconds
#
# Revision: 1
# Processed by: cddbd v1.5.2PL0 Copyright (c) Steve Scherf et al.
# Submitted via: EZCDAudioConverter 5.0.0.1
#
DISCID=ca0d800e
DTITLE=RICH - I have a Dream
DYEAR=2001
DGENRE=R&B
TTITLE0=I have a Dream(Cavatina)
TTITLE1=My Tears
TTITLE2=사링해, 이 말 밖에...
TTITLE3=Hurt to Say Hello
TTITLE4=Without You(Feat. 박화요비)
TTITLE5=비누향기 (Feat. 피플크루)
TTITLE6=It's alright(IVY R&B Version)
TTITLE7=마지막 변명
TTITLE8=경고
TTITLE9=괜찮아(바램)
TTITLE10=Break up
TTITLE11=Give me your love
TTITLE12=꺼져!
TTITLE13=It's alright(Piano Version)
EXTD=
EXTT0=
EXTT1=
EXTT2=
EXTT3=
EXTT4=
EXTT5=
EXTT6=
EXTT7=
EXTT8=
EXTT9=
EXTT10=
EXTT11=
EXTT12=
EXTT13=
PLAYORDER=
